<svg xmlns="http://www.w3.org/2000/svg" viewBox="0 0 24 24" width="24" height="24"><path fill="#C5C5C5" fill-rule="evenodd" d="M10.705 22.87c-.147-.063-.22-.19-.318-.55l-.146-.534-.086-.319c-.027-.105-.041-.114-.35-.214-.383-.123-.472-.16-.93-.39-.406-.204-.283-.227-1.006.19a6 6 0 0 1-.57.302c-.23.079-.27.05-1.206-.889-.477-.478-.88-.889-.895-.913a.5.5 0 0 1-.028-.176c0-.11.058-.235.338-.724.187-.325.34-.603.34-.617s-.079-.182-.175-.374a7 7 0 0 1-.424-1.07c-.046-.155-.059-.168-.186-.201-1.304-.341-1.284-.333-1.38-.53-.058-.121-.064-.2-.064-.758 0-.693.02-.784.206-.916l.1-.072h1.89c1.803 0 1.894.003 1.98.061.14.095.19.227.218.586.035.43.08.684.18 1 .45 1.423 1.7 2.503 3.162 2.733.357.057 1.006.05 1.36-.014 1.452-.26 2.644-1.324 3.11-2.777.08-.25.164-.766.165-1.008 0-.252.053-.391.185-.492l.117-.09h1.892c1.776 0 1.897.004 1.979.06.192.13.203.173.214.887.01.61.006.664-.057.794-.098.203-.073.194-1.382.536-.127.033-.14.046-.185.202-.094.315-.281.785-.44 1.104-.087.176-.159.33-.159.344s.153.289.34.614c.356.62.387.717.292.896-.025.048-.429.469-.896.935-.891.889-.956.938-1.16.88a6 6 0 0 1-.606-.317 46 46 0 0 0-.577-.325c-.062-.032-.116-.015-.388.122-.357.18-.65.3-1.026.421l-.259.084-.168.63a9 9 0 0 1-.21.706.6.6 0 0 1-.154.153l-.113.077-1.211-.001c-.945-.001-1.234-.011-1.313-.045m-.029-5.668a1.94 1.94 0 0 1-1.319-1.108c-.126-.285-.15-.473-.15-1.144 0-.71.013-.76.227-.88.12-.068.144-.068 2.565-.068 2.649 0 2.526-.008 2.699.177l.08.087v.748c-.002.74-.003.75-.091.971a1.98 1.98 0 0 1-1.398 1.23c-.15.04-.404.049-1.287.047-.945-.002-1.131-.01-1.325-.06m-1.24-3.564c-.127-.065-.197-.19-.276-.494-.15-.583-.28-.787-.915-1.444-.465-.482-.775-.887-.896-1.17-.202-.479-.298-.917-.343-1.58-.064-.924.06-1.686.394-2.442a5.05 5.05 0 0 1 3.922-2.97 7.5 7.5 0 0 1 1.357 0c.57.08 1.204.284 1.66.534 1.56.857 2.53 2.349 2.652 4.079.05.718-.027 1.465-.21 2.027-.174.534-.393.857-1.031 1.526a9 9 0 0 0-.57.638 2.6 2.6 0 0 0-.35.824c-.089.382-.206.511-.465.512a.444.444 0 0 1-.443-.326c-.057-.199.07-.715.282-1.143.171-.344.362-.591.85-1.099.473-.492.579-.627.734-.936.323-.642.406-1.873.182-2.697a4.12 4.12 0 0 0-1.773-2.43 3.3 3.3 0 0 0-.905-.427A4.09 4.09 0 0 0 8.23 6.896c-.326.768-.406 1.453-.28 2.39.06.44.205.849.413 1.163.064.097.322.39.573.65.25.261.525.574.61.695.34.484.61 1.274.534 1.56a.47.47 0 0 1-.644.284m2.371.01a.6.6 0 0 1-.145-.114l-.081-.086-.016-1.151-.016-1.15-.21-.12c-.411-.231-.636-.537-.727-.989-.05-.244-.05-.285-.003-.512.065-.314.182-.53.408-.756.212-.212.397-.31.716-.376.969-.203 1.854.688 1.653 1.664-.086.421-.33.748-.725.97l-.208.118-.016 1.15c-.015 1.092-.02 1.154-.08 1.221a.52.52 0 0 1-.55.131M4.885 8.94c-.111-.021-.291-.219-.315-.346a.48.48 0 0 1 .15-.425l.098-.094h1.38l.099.094c.12.115.177.277.15.425-.027.14-.203.32-.341.348-.114.023-1.1.021-1.22-.002m12.916-.032c-.17-.09-.244-.213-.244-.408 0-.116.02-.194.064-.255.124-.168.212-.187.877-.186.668 0 .745.019.872.212a.53.53 0 0 1 0 .472c-.126.19-.176.203-.844.213-.539.008-.628.002-.725-.048m-10.175-4.2c-.092-.017-.888-.784-.962-.927a.46.46 0 0 1-.033-.256c.033-.344.403-.498.704-.293.196.133.831.8.856.896.035.142-.006.344-.088.433-.128.14-.275.185-.477.147m8.445-.022a.474.474 0 0 1-.26-.558c.024-.097.707-.812.873-.914a.45.45 0 0 1 .554.042c.097.089.12.134.133.269a.46.46 0 0 1-.034.256c-.027.052-.236.277-.464.5-.313.307-.441.413-.524.429-.143.028-.164.026-.278-.024m-4.204-1.734a.54.54 0 0 1-.202-.144l-.1-.114v-.653c0-.718.01-.765.19-.886.21-.14.52-.067.632.15.04.077.05.223.05.748v.651l-.126.125c-.069.07-.155.126-.19.126a.5.5 0 0 0-.11.013.4.4 0 0 1-.144-.016"/></svg>