<svg xmlns="http://www.w3.org/2000/svg" width="16" height="16" viewBox="0 0 16 16">
  <path fill="#FFCC00" d="M7,0h2v1h-2zM4,1h1v1h-1zM7,1h2v1h-2zM11,1h1v1h-1zM4,2h8v1h-8zM5,3h1v1h-1zM10,3h1v1h-1zM4,4h2v1h-2zM10,4h2v1h-2zM2,5h3v1h-3zM7,5h2v1h-2zM11,5h3v1h-3zM4,6h2v1h-2zM7,6h2v1h-2zM10,6h2v1h-2zM5,7h1v1h-1zM7,7h2v1h-2zM10,7h1v1h-1zM5,8h6v1h-6z"/>
  <path fill="#D45500" d="M2,9h3v1h-3zM6,9h4v1h-4zM11,9h3v1h-3zM2,10h12v1h-12zM3,11h10v1h-10zM3,12h10v1h-10zM3,13h10v1h-10zM4,14h8v1h-8zM6,15h4v1h-4z"/>
</svg>