<svg xmlns="http://www.w3.org/2000/svg" width="20" height="20" viewBox="0 0 20 20">
  <path fill="#FFCC00" d="M9,0h2v1h-2zM9,1h2v1h-2zM5,2h10v1h-10zM5,3h4v1h-4zM11,3h4v1h-4zM5,4h2v1h-2zM13,4h2v1h-2zM5,5h2v1h-2zM13,5h2v1h-2zM3,6h3v1h-3zM9,6h2v1h-2zM14,6h3v1h-3zM3,7h1v1h-1zM5,7h2v1h-2zM8,7h4v1h-4zM13,7h2v1h-2zM16,7h1v1h-1zM5,8h2v1h-2zM8,8h4v1h-4zM13,8h2v1h-2zM6,9h2v1h-2zM9,9h2v1h-2zM12,9h2v1h-2zM7,10h1v1h-1zM9,10h2v1h-2zM12,10h1v1h-1zM7,11h1v1h-1zM9,11h2v1h-2zM12,11h1v1h-1z"/>
  <path fill="#D45500" d="M8,11h1v1h-1zM11,11h1v1h-1zM2,12h16v1h-16zM2,13h16v1h-16zM3,14h14v1h-14zM4,15h5v1h-5zM11,15h5v1h-5zM3,16h14v1h-14zM4,17h12v1h-12zM5,18h10v1h-10zM8,19h4v1h-4z"/>
</svg>