<svg xmlns="http://www.w3.org/2000/svg" width="40" height="40" viewBox="0 0 40 40">
  <!-- Top ray (vertical) -->
  <path fill="#FFCC00" d="M19.758 3.423a.989.989 0 01-.37-.264l-.183-.209V1.755c0-1.316.018-1.402.348-1.624.385-.256.953-.122 1.158.275.073.141.092.409.092 1.37v1.193l-.231.229c-.126.128-.284.231-.348.231a.916.916 0 00-.202.024.733.733 0 01-.264-.03"/>
  <!-- Top-right ray -->
  <path fill="#FFCC00" d="M27.46 6.6a.868.868 0 01-.476-1.022c.044-.178 1.295-1.488 1.599-1.675a.824.824 0 011.015.077c.178.163.22.246.244.493a.843.843 0 01-.063.469c-.049.095-.432.507-.85.916-.573.562-.808.757-.96.786-.262.051-.3.048-.51-.044"/>
  <!-- Top-left ray -->
  <path fill="#FFCC00" d="M11.988 6.641c-.168-.031-1.627-1.437-1.762-1.699a.843.843 0 01-.06-.469c.06-.63.738-.912 1.29-.537.359.244 1.522 1.466 1.568 1.642.064.26-.011.63-.161.793-.235.256-.504.339-.874.27"/>
  <!-- Right ray -->
  <path fill="#FFCC00" d="M30.629 14.335c-.311-.165-.447-.39-.447-.747 0-.213.037-.356.117-.467.227-.308.388-.343 1.607-.341 1.224 0 1.365.035 1.598.388a.971.971 0 010 .865c-.231.348-.322.372-1.546.39-.988.015-1.151.004-1.329-.088"/>
  <!-- Left ray -->
  <path fill="#FFCC00" d="M6.965 14.394c-.204-.039-.533-.401-.577-.634a.879.879 0 01.275-.779l.18-.172h2.528l.181.172c.22.21.325.507.275.779-.05.256-.372.586-.625.637-.209.042-2.015.038-2.235-.004"/>
  <!-- Bulb filament (center circle + stem) -->
  <path fill="#FFCC00" d="M19.646 23.019a1.099 1.099 0 01-.266-.209l-.148-.158-.029-2.109-.029-2.107-.385-.22c-.753-.423-1.165-.984-1.332-1.812-.091-.447-.091-.522-.005-.938.119-.575.333-.971.747-1.385.389-.388.728-.568 1.312-.689 1.775-.372 3.397 1.261 3.028 3.049-.157.771-.604 1.37-1.328 1.777l-.381.216-.03 2.107c-.027 2-.036 2.114-.146 2.237a.953.953 0 01-1.008.24"/>
  <!-- Lightbulb body (outer shape) -->
  <path fill="#FFCC00" d="M15.304 23.002c-.232-.119-.36-.348-.505-.905-.275-1.068-.513-1.441-1.676-2.645-.852-.883-1.42-1.625-1.641-2.144-.37-.877-.546-1.68-.628-2.895-.118-1.692.11-3.089.722-4.473a9.252 9.252 0 017.185-5.441 13.74 13.74 0 012.486 0c1.044.147 2.206.52 3.041.978 2.858 1.57 4.635 4.304 4.859 7.473.091 1.315-.05 2.684-.385 3.714-.319.978-.72 1.57-1.889 2.796a16.49 16.49 0 00-1.044 1.169 4.763 4.763 0 00-.641 1.51c-.163.7-.377.936-.852.938a.813.813 0 01-.812-.597c-.104-.365.129-1.31.517-2.094.313-.63.663-1.083 1.557-2.013.867-.902 1.061-1.149 1.345-1.715.592-1.176.744-3.431.333-4.941a7.548 7.548 0 00-3.312-4.23 6.046 6.046 0 00-1.658-.782 7.493 7.493 0 00-9.276 4.168c-.597 1.407-.744 2.662-.513 4.379.11.806.376 1.555.757 2.13.117.178.59.715 1.05 1.191.458.478.962 1.052 1.118 1.273.623.887 1.118 2.334.978 2.858a.861.861 0 01-1.18.52"/>
  <!-- Bulb base/collar (orange) -->
  <path fill="#D45500" d="M17.574 29.532a3.554 3.554 0 01-2.416-2.03c-.231-.522-.275-.867-.275-2.096 0-1.3.024-1.392.416-1.612.22-.125.264-.125 4.699-.125 4.853 0 4.628-.015 4.945.324l.147.16v1.37c-.004 1.356-.006 1.374-.167 1.779a3.627 3.627 0 01-2.561 2.253c-.275.073-.74.09-2.358.086-1.731-.004-2.072-.018-2.427-.11"/>
  <!-- Gear (orange) -->
  <path fill="#D45500" d="M17.627 39.914c-.269-.116-.403-.348-.583-1.008l-.267-.978-.158-.584c-.049-.193-.075-.209-.641-.392-.702-.226-.865-.293-1.704-.715-.744-.373-.518-.416-1.843.349a10.992 10.992 0 01-1.044.553c-.421.145-.495.091-2.21-1.629C8.305 34.634 7.566 33.881 7.539 33.837a.916.916 0 01-.052-.322c0-.202.107-.431.62-1.327.342-.595.623-1.104.623-1.13 0-.026-.145-.333-.321-.685a12.824 12.824 0 01-.776-1.96c-.084-.284-.108-.308-.341-.368-2.389-.625-2.352-.61-2.528-.971-.106-.222-.117-.366-.117-1.389 0-1.27.037-1.436.377-1.678l.183-.132h3.463c3.303 0 3.47.006 3.627.112.257.174.348.416.4 1.074.064.787.146 1.253.33 1.832.824 2.607 3.114 4.586 5.793 5.007.654.104 1.843.091 2.491-.026 2.66-.476 4.844-2.426 5.698-5.088.147-.458.3-1.403.302-1.846 0-.462.097-.717.339-.902l.214-.164h3.466c3.254 0 3.476.007 3.626.11.352.238.372.317.392 1.625.018 1.118.011 1.216-.104 1.455-.18.372-.134.355-2.532.982-.233.06-.257.084-.339.37-.172.577-.515 1.438-.806 2.023-.16.322-.291.604-.291.63 0 .026.28.53.623 1.125.652 1.136.709 1.314.535 1.641-.046.088-.786.86-1.642 1.713-1.632 1.629-1.751 1.718-2.125 1.612a10.992 10.992 0 01-1.11-.58 84.274 84.274 0 00-1.057-.596c-.114-.059-.213-.027-.711.224-.654.33-1.191.55-1.88.771l-.474.154-.308 1.154a16.49 16.49 0 01-.385 1.293 1.099 1.099 0 01-.282.28l-.207.141-2.219-.002c-1.731-.002-2.26-.02-2.405-.082"/>
</svg>
